<svg id="PRINT_1" data-name="PRINT 1" xmlns="http://www.w3.org/2000/svg" width="1.17in" height="0.61in" viewBox="0 0 84.35 43.64"><defs><style>.cls-1{fill:#f4f4f4;}.cls-2{fill:#4e5da7;}.cls-3{fill:#fff;stroke:#fff;stroke-miterlimit:10;stroke-width:0.25px;}</style></defs><rect class="cls-1" y="5" width="26.82" height="27.76" rx="7.23"/><polygon class="cls-2" points="17.1 19.78 20.12 26.26 17.1 26.26 17.1 19.78"/><polygon class="cls-2" points="14.08 15.23 17.11 15.23 17.11 26.26 16.67 26.26 14.08 20.85 14.08 15.23"/><polygon class="cls-2" points="7.91 19 11.38 26.26 14.89 26.26 9.62 15.27 7.91 19"/><path class="cls-2" d="M134.51,64.69h-8.38s-2.33,0-3.88,3.6-4.76,10-4.76,10v1.13h3l1.72-3.65,3.1-6.52a1.37,1.37,0,0,1,1.34-.86c1,0,6.17,0,6.17,0Z" transform="translate(-112.59 -53.12)"/><polygon class="cls-2" points="7.91 11.5 4.9 11.5 4.91 21.35 7.91 15.1 7.91 11.5"/><text x="-112.59" y="-53.12"/><path class="cls-3" d="M143.18,65.21h.37v2.55c.4-.38,1.8-1.7,2.67-2.55h.51l-2.2,2.08,2.32,2.82h-.47l-2.13-2.57-.7.62v2h-.37Z" transform="translate(-112.59 -53.12)"/><path class="cls-3" d="M151.52,67.62a2.28,2.28,0,0,1-2.23,2.56,2.54,2.54,0,0,1,.05-5A2.23,2.23,0,0,1,151.52,67.62Zm-4,0a2,2,0,0,0,1.8,2.19c1.27,0,1.8-1,1.8-2.2s-.6-2.14-1.79-2.14S147.51,66.53,147.51,67.64Z" transform="translate(-112.59 -53.12)"/><path class="cls-3" d="M153,65.21v3c0,1.3.74,1.64,1.43,1.64s1.43-.35,1.43-1.64v-3h.38v3c0,1.53-.81,2-1.83,2a1.71,1.71,0,0,1-1.8-2v-3Z" transform="translate(-112.59 -53.12)"/><path class="cls-3" d="M158,67.82v2.29h-.39v-4.9h1.76c1,0,1.48.52,1.48,1.29a1.1,1.1,0,0,1-.92,1.14c.51.12.84.45.84,1.29v.19a3.29,3.29,0,0,0,.06,1h-.38a3.29,3.29,0,0,1-.07-1V69c0-.8-.24-1.14-1.18-1.14Zm0-.35h1.18c.86,0,1.26-.32,1.26-1s-.39-.94-1.15-.94H158Z" transform="translate(-112.59 -53.12)"/><path class="cls-3" d="M166.12,67.62a2.28,2.28,0,0,1-2.23,2.56,2.54,2.54,0,0,1,.05-5A2.23,2.23,0,0,1,166.12,67.62Zm-4,0a2,2,0,0,0,1.8,2.19c1.27,0,1.8-1,1.8-2.2s-.6-2.14-1.79-2.14S162.11,66.53,162.11,67.64Z" transform="translate(-112.59 -53.12)"/><path class="cls-3" d="M167.21,68.79a1.25,1.25,0,0,0,1.38,1c.9,0,1.24-.45,1.24-1s-.24-.9-1.32-1.16-1.49-.6-1.49-1.31.47-1.24,1.52-1.24a1.44,1.44,0,0,1,1.6,1.25h-.39a1.1,1.1,0,0,0-1.23-.9c-.7,0-1.09.33-1.09.87s.32.75,1.23,1c1.38.34,1.58.89,1.58,1.48s-.53,1.35-1.66,1.35a1.58,1.58,0,0,1-1.77-1.38Z" transform="translate(-112.59 -53.12)"/><path class="cls-3" d="M171.31,65.21h.38v2.13h2.94V65.21H175v4.9h-.38V67.69h-2.94v2.42h-.38Z" transform="translate(-112.59 -53.12)"/><path class="cls-3" d="M144.18,74h-1.65v-.35h3.69V74h-1.66v4.55h-.38Z" transform="translate(-112.59 -53.12)"/><path class="cls-3" d="M146.89,76.81l-.62,1.7h-.39l1.8-4.9h.45l1.88,4.9h-.41l-.64-1.7Zm1.94-.35c-.54-1.45-.82-2.15-.92-2.48h0c-.12.37-.43,1.24-.87,2.48Z" transform="translate(-112.59 -53.12)"/><path class="cls-3" d="M152.1,77.17c0,1.09-.48,1.41-1.13,1.41a2,2,0,0,1-.42,0v-.35a1.69,1.69,0,0,0,.43,0c.66,0,.74-.51.74-1.06V73.61h.38Z" transform="translate(-112.59 -53.12)"/><path class="cls-3" d="M153.89,76.81l-.62,1.7h-.39l1.8-4.9h.45l1.88,4.9h-.41l-.64-1.7Zm1.94-.35c-.54-1.45-.82-2.15-.92-2.48h0c-.12.37-.43,1.24-.87,2.48Z" transform="translate(-112.59 -53.12)"/><path class="cls-3" d="M157.88,73.61h.37v4.55h2.64l-.07.35h-2.94Z" transform="translate(-112.59 -53.12)"/><path class="cls-3" d="M161.64,73.61H162v4.55h2.63l-.07.35h-2.94Z" transform="translate(-112.59 -53.12)"/><path class="cls-3" d="M165.79,73.61v4.9h-.38v-4.9Z" transform="translate(-112.59 -53.12)"/><path class="cls-3" d="M170.11,76.1h-2.5v2.06h2.73l-.05.35h-3.06v-4.9h3V74h-2.62v1.79h2.5Z" transform="translate(-112.59 -53.12)"/><path class="cls-3" d="M171.31,73.61h1.75A1.34,1.34,0,0,1,174.57,75a1.37,1.37,0,0,1-1.56,1.4h-1.32v2.14h-.38Zm.38,2.41h1.36c.79,0,1.12-.42,1.12-1a1,1,0,0,0-1.1-1h-1.38Z" transform="translate(-112.59 -53.12)"/><path class="cls-3" d="M179.75,76a2.22,2.22,0,1,1-2.18-2.48A2.22,2.22,0,0,1,179.75,76Zm-4,0a2,2,0,0,0,1.8,2.19c1.26,0,1.8-1,1.8-2.2s-.61-2.14-1.79-2.14S175.75,74.93,175.75,76Z" transform="translate(-112.59 -53.12)"/><path class="cls-3" d="M181.23,73.61v3c0,1.3.73,1.64,1.43,1.64s1.43-.35,1.43-1.64v-3h.38v3c0,1.53-.81,2-1.83,2a1.71,1.71,0,0,1-1.8-1.95v-3Z" transform="translate(-112.59 -53.12)"/><path class="cls-3" d="M186.23,76.22v2.29h-.39v-4.9h1.76c1,0,1.48.52,1.48,1.29a1.1,1.1,0,0,1-.92,1.14c.5.12.84.45.84,1.29v.19a3.29,3.29,0,0,0,.06,1h-.38a3.29,3.29,0,0,1-.07-1v-.13c0-.8-.24-1.14-1.18-1.14Zm0-.35h1.18c.86,0,1.26-.32,1.26-1s-.39-.94-1.16-.94h-1.28Z" transform="translate(-112.59 -53.12)"/></svg>